<?xml version="1.0" encoding="UTF-8" standalone="no"?>
<!DOCTYPE svg PUBLIC "-//W3C//DTD SVG 1.1//EN" "http://www.w3.org/Graphics/SVG/1.1/DTD/svg11.dtd">
<svg width="100%" height="100%" viewBox="0 0 2500 2500" version="1.1" xmlns="http://www.w3.org/2000/svg" xmlns:xlink="http://www.w3.org/1999/xlink" xml:space="preserve" xmlns:serif="http://www.serif.com/" style="fill-rule:evenodd;clip-rule:evenodd;stroke-linecap:round;stroke-linejoin:round;stroke-miterlimit:1.5;">
    <g transform="matrix(1.08392,0,0,1.05594,-85.6649,-413.315)">
        <ellipse cx="1237.01" cy="1583.92" rx="1032.52" ry="1067.15" style="fill:rgb(219,184,107);fill-opacity:0.58;"/>
        <path d="M1237.01,433.897C1851.27,433.897 2350.26,949.047 2350.26,1583.92C2350.26,2218.78 1851.27,2733.93 1237.01,2733.93C622.748,2733.93 123.768,2218.78 123.768,1583.92C123.768,949.047 622.748,433.897 1237.01,433.897ZM1237.01,516.762C667.149,516.762 204.493,994.937 204.493,1583.92C204.493,2172.89 667.149,2651.07 1237.01,2651.07C1806.87,2651.07 2269.53,2172.89 2269.53,1583.92C2269.53,994.937 1806.87,516.762 1237.01,516.762Z" style="fill:rgb(190,218,255);fill-opacity:0.75;"/>
    </g>
    <g id="Layer1" transform="matrix(1.11481,0,0,1.11481,-168.989,-408.279)">
        <path d="M1699.41,668.812C1423.17,576.642 894.357,662.39 696.888,874.672C567.188,1014.1 453.463,1376.33 453.463,1376.33C284.788,1577.91 296.097,1642.72 243.331,1898.24L495.199,1781.26C495.199,1781.26 517.265,2143.81 696.404,2335.66C835.122,2484.22 1103.57,2553.11 1226.44,2551.68C1507.65,2548.41 1609.16,2455.1 1657.92,2409.97C1706.68,2364.84 1587.93,2002.85 1587.93,2002.85L1905.04,1982.09L1906.42,1832.23L1570.24,1649.87L2036.67,1328.77C2036.67,1328.77 2077,1254.67 2047.9,1204.27C2031.7,1176.2 1961.79,1193.01 1938.33,1134.38C1908.95,1060.94 1935.43,747.557 1699.41,668.812Z" style="fill:url(#_Radial1);"/>
        <clipPath id="_clip2">
            <path d="M1699.41,668.812C1423.17,576.642 894.357,662.39 696.888,874.672C567.188,1014.1 453.463,1376.33 453.463,1376.33C284.788,1577.91 296.097,1642.72 243.331,1898.24L495.199,1781.26C495.199,1781.26 517.265,2143.81 696.404,2335.66C835.122,2484.22 1103.57,2553.11 1226.44,2551.68C1507.65,2548.41 1609.16,2455.1 1657.92,2409.97C1706.68,2364.84 1587.93,2002.85 1587.93,2002.85L1905.04,1982.09L1906.42,1832.23L1570.24,1649.87L2036.67,1328.77C2036.67,1328.77 2077,1254.67 2047.9,1204.27C2031.7,1176.2 1961.79,1193.01 1938.33,1134.38C1908.95,1060.94 1935.43,747.557 1699.41,668.812Z"/>
        </clipPath>
        <g clip-path="url(#_clip2)">
            <path d="M2089.02,1309.09C2089.02,1309.09 1858.01,1413.14 1681.58,1421.32C1458.8,1431.65 1223.28,1334.3 1223.28,1334.3C1223.28,1334.3 929.19,1469.94 820.671,1575.65C685.775,1707.06 707.779,1846.68 733.928,2017.95C760.072,2189.18 901.417,2439.09 901.417,2439.09C1212.76,2520.14 1359.29,2549.46 1622.23,2406.37L1559.83,1657L2089.02,1309.09Z" style="fill:url(#_Linear3);"/>
            <clipPath id="_clip4">
                <path d="M2089.02,1309.09C2089.02,1309.09 1858.01,1413.14 1681.58,1421.32C1458.8,1431.65 1223.28,1334.3 1223.28,1334.3C1223.28,1334.3 929.19,1469.94 820.671,1575.65C685.775,1707.06 707.779,1846.68 733.928,2017.95C760.072,2189.18 901.417,2439.09 901.417,2439.09C1212.76,2520.14 1359.29,2549.46 1622.23,2406.37L1559.83,1657L2089.02,1309.09Z"/>
            </clipPath>
            <g clip-path="url(#_clip4)">
                <path d="M1198.11,1312.87L928.601,1468.56C928.601,1468.56 1088.47,1587.76 1183.98,1621.63C1374.39,1689.17 2139.71,1288.41 2139.71,1288.41C1893.56,1357.57 1448.07,1385.55 1198.11,1312.87Z" style="fill:url(#_Linear5);"/>
                <g transform="matrix(1.13916,0,0,1.17446,-284.758,-229.758)">
                    <path d="M2046.29,1316.94C1892.9,1398.12 1645.23,1515.92 1366.27,1592.1L1490.55,1778.27L1614.93,1609.55L2046.29,1316.94Z" style="fill:url(#_Linear6);"/>
                </g>
            </g>
            <path d="M2089.02,1309.09C2089.02,1309.09 1858.01,1413.14 1681.58,1421.32C1458.8,1431.65 1223.28,1334.3 1223.28,1334.3C1223.28,1334.3 929.19,1469.94 820.671,1575.65C685.775,1707.06 707.779,1846.68 733.928,2017.95C760.072,2189.18 901.417,2439.09 901.417,2439.09C1212.76,2520.14 1359.29,2549.46 1622.23,2406.37L1559.83,1657L2089.02,1309.09Z" style="fill:none;stroke:black;stroke-width:0.9px;"/>
            <g transform="matrix(0.770571,0,0,0.701102,163.39,474.682)">
                <path d="M1262.91,1154.08C1268.44,1217.28 1319.45,1244.62 1376.12,1232.4C1441.6,1218.28 1456.7,1138.51 1444.56,1106.26C1432.93,1075.36 1397.2,1055.21 1336.76,1063.35C1290.84,1069.54 1258.59,1104.78 1262.91,1154.08Z" style="stroke:rgb(95,115,142);stroke-width:17.76px;"/>
            </g>
            <path d="M494.596,1273.57L263.911,1558.39L209.548,1959.84C293.857,1777.2 334.06,1574.15 436.385,1475.04L494.596,1273.57Z" style="fill:rgb(16,53,103);"/>
        </g>
        <path d="M1699.41,668.812C1423.17,576.642 894.357,662.39 696.888,874.672C567.188,1014.1 453.463,1376.33 453.463,1376.33C284.788,1577.91 296.097,1642.72 243.331,1898.24L495.199,1781.26C495.199,1781.26 517.265,2143.81 696.404,2335.66C835.122,2484.22 1103.57,2553.11 1226.44,2551.68C1507.65,2548.41 1609.16,2455.1 1657.92,2409.97C1706.68,2364.84 1587.93,2002.85 1587.93,2002.85L1905.04,1982.09L1906.42,1832.23L1570.24,1649.87L2036.67,1328.77C2036.67,1328.77 2077,1254.67 2047.9,1204.27C2031.7,1176.2 1961.79,1193.01 1938.33,1134.38C1908.95,1060.94 1935.43,747.557 1699.41,668.812Z" style="fill:none;stroke:black;stroke-width:0.9px;"/>
        <path d="M971.46,1797.88L1039.22,1752.1L1515.22,1902.62L1957.98,1588.1L2030.21,1624.65L1610.01,1979.17L1438.08,2002.96L971.46,1797.88Z" style="fill:rgb(234,232,227);"/>
        <path d="M964.682,1773.71L940.437,1791.5C940.437,1791.5 966.557,2242.6 1004.42,2433.53L1464.35,2478.64L1578.7,2469.9L1906.06,2288.4L2059.55,1608.25L2030.44,1587.4L1570.4,1918.52L1473.49,1935.48L964.682,1773.71Z" style="fill:rgb(143,24,0);"/>
        <clipPath id="_clip7">
            <path d="M964.682,1773.71L940.437,1791.5C940.437,1791.5 966.557,2242.6 1004.42,2433.53L1464.35,2478.64L1578.7,2469.9L1906.06,2288.4L2059.55,1608.25L2030.44,1587.4L1570.4,1918.52L1473.49,1935.48L964.682,1773.71Z"/>
        </clipPath>
        <g clip-path="url(#_clip7)">
            <path d="M1585.62,1908.64L1578.7,2469.9L1914.65,2279.89L2081.03,1545.33L1585.62,1908.64Z" style="fill:url(#_Linear8);stroke:black;stroke-width:0.9px;"/>
            <path d="M894.13,1747.14L975.104,2502.17L1476.44,2560.6L1448.89,1850.63L894.13,1747.14Z" style="fill:rgb(119,0,15);"/>
            <path d="M930.535,2087.28L930.535,2494.98L1003.61,2537.86L1197.62,2079.62L930.535,2087.28Z" style="fill:rgb(94,0,20);"/>
            <path d="M929.431,1678.37L888.553,1772.81L1458.63,1955.13L1587.22,1939.47L2122.67,1552.71L2027.33,1519.53L1522.13,1864.08L929.431,1678.37Z" style="fill:rgb(214,71,71);"/>
        </g>
        <path d="M964.682,1773.71L940.437,1791.5C940.437,1791.5 966.557,2242.6 1004.42,2433.53L1464.35,2478.64L1578.7,2469.9L1906.06,2288.4L2059.55,1608.25L2030.44,1587.4L1570.4,1918.52L1473.49,1935.48L964.682,1773.71Z" style="fill:none;stroke:black;stroke-width:0.9px;"/>
        <g transform="matrix(1,0,0,1,-125.872,101.789)">
            <path d="M885.597,866.725C814.385,935.328 734.139,1136.92 757.216,1182.85C802.511,1273 953.275,1328.74 1025.26,1318.15C1096.86,1307.62 1168.5,1251.43 1231.44,1207.15C1255.15,1190.48 1214.27,1144.53 1280.3,1103.32C1357.24,1055.29 1408.25,1143.12 1470.23,1104C1538.44,1060.95 1525.95,885.991 1487.87,811.364C1433.36,704.558 1355.57,710.918 1200.33,710.719C1038.79,710.512 940.679,813.66 885.597,866.725Z" style="fill:url(#_Radial9);stroke:black;stroke-width:0.9px;"/>
        </g>
        <g transform="matrix(1.13618,0,0,1.13739,2.77173,-285.127)">
            <path d="M590.767,1848.85C607.962,1799.93 777.217,1966.81 834.84,1987.33C892.464,2007.84 1054.19,2067.72 1054.19,2067.72C1054.19,2067.72 1020.38,2096.69 945.705,2134.4C871.028,2172.11 602.036,2085.45 602.036,2085.45C560.744,2020.62 561.524,1932.02 590.767,1848.85Z" style="fill:rgb(17,22,29);stroke:black;stroke-width:0.79px;"/>
        </g>
        <path d="M2001.07,1864.17L2062.97,1891.51L1987.7,2109.58C1887.4,2082.19 1888.58,2083.8 1826.06,2031.89C1908.13,1960.12 1892.15,1966.12 1977.43,1929.33L2001.07,1864.17Z" style="fill:rgb(48,52,57);stroke:black;stroke-width:0.9px;"/>
        <g transform="matrix(0.539899,0,0,0.563402,568.684,570.785)">
            <ellipse cx="1221.13" cy="1284.13" rx="22.384" ry="19.752" style="fill:rgb(184,195,210);"/>
        </g>
        <ellipse cx="1879.59" cy="1212.26" rx="59.646" ry="19.882" style="fill:rgb(60,119,195);"/>
    </g>
    <defs>
        <radialGradient id="_Radial1" cx="0" cy="0" r="1" gradientUnits="userSpaceOnUse" gradientTransform="matrix(-1420.62,866.735,-866.735,-1420.62,1939.57,956.721)"><stop offset="0" style="stop-color:rgb(114,169,241);stop-opacity:1"/><stop offset="0.2" style="stop-color:rgb(33,80,143);stop-opacity:1"/><stop offset="0.41" style="stop-color:rgb(43,47,53);stop-opacity:1"/><stop offset="1" style="stop-color:black;stop-opacity:1"/></radialGradient>
        <linearGradient id="_Linear3" x1="0" y1="0" x2="1" y2="0" gradientUnits="userSpaceOnUse" gradientTransform="matrix(-309.48,727.461,-727.461,-309.48,1308.53,1540.9)"><stop offset="0" style="stop-color:rgb(131,160,197);stop-opacity:1"/><stop offset="1" style="stop-color:rgb(38,65,100);stop-opacity:1"/></linearGradient>
        <linearGradient id="_Linear5" x1="0" y1="0" x2="1" y2="0" gradientUnits="userSpaceOnUse" gradientTransform="matrix(-552.34,23.2517,-23.2517,-552.34,1659.2,1448.67)"><stop offset="0" style="stop-color:rgb(138,163,195);stop-opacity:1"/><stop offset="1" style="stop-color:rgb(78,112,157);stop-opacity:1"/></linearGradient>
        <linearGradient id="_Linear6" x1="0" y1="0" x2="1" y2="0" gradientUnits="userSpaceOnUse" gradientTransform="matrix(193.165,-149.452,86.3327,104.976,1470.54,1668.76)"><stop offset="0" style="stop-color:rgb(170,207,255);stop-opacity:0"/><stop offset="1" style="stop-color:rgb(196,222,255);stop-opacity:1"/></linearGradient>
        <linearGradient id="_Linear8" x1="0" y1="0" x2="1" y2="0" gradientUnits="userSpaceOnUse" gradientTransform="matrix(-355.41,684.418,-684.418,-355.41,2033.22,1635.69)"><stop offset="0" style="stop-color:rgb(176,105,189);stop-opacity:1"/><stop offset="1" style="stop-color:rgb(183,53,67);stop-opacity:1"/></linearGradient>
        <radialGradient id="_Radial9" cx="0" cy="0" r="1" gradientUnits="userSpaceOnUse" gradientTransform="matrix(-582.087,388.031,-388.031,-582.087,1411.64,843.631)"><stop offset="0" style="stop-color:rgb(184,195,210);stop-opacity:1"/><stop offset="1" style="stop-color:rgb(60,98,149);stop-opacity:1"/></radialGradient>
    </defs>
</svg>
